HIERARCHY
ROOT Hips
{
	OFFSET 53.413799 6.215976 85.051003
	CHANNELS 6 Xposition Yposition Zposition Xrotation Yrotation Zrotation
	JOINT spine
	{
		OFFSET 0.000000 -0.367607 6.392601
		CHANNELS 3 Xrotation Yrotation Zrotation
		JOINT spine1
		{
			OFFSET 0.000000 -0.000001 9.176109
			CHANNELS 3 Xrotation Yrotation Zrotation
			JOINT spine2
			{
				OFFSET 0.000000 -0.000001 8.792381
				CHANNELS 3 Xrotation Yrotation Zrotation
				JOINT Neck
				{
					OFFSET 0.000000 -1.076244 22.573700
					CHANNELS 3 Xrotation Yrotation Zrotation
					JOINT Head
					{
						OFFSET 0.000000 -0.000001 6.820114
						CHANNELS 3 Xrotation Yrotation Zrotation
						End Site
						{
							OFFSET 0.000000 5.444266 16.508499
						}
					}
				}
				JOINT RightShoulder
				{
					OFFSET -3.702209 0.515506 9.495087
					CHANNELS 3 Xrotation Yrotation Zrotation
					JOINT RightArm
					{
						OFFSET 0.000000 -0.000002 12.453705
						CHANNELS 3 Xrotation Yrotation Zrotation
						JOINT RightArmRoll
						{
							OFFSET 0.000000 -0.000001 6.286865
							CHANNELS 3 Xrotation Yrotation Zrotation
							JOINT RightForeArm
							{
								OFFSET 0.000000 -0.000003 18.311401
								CHANNELS 3 Xrotation Yrotation Zrotation
								JOINT RightForeArmRoll
								{
									OFFSET 0.000000 -0.000001 7.054825
									CHANNELS 3 Xrotation Yrotation Zrotation
									JOINT RightHand
									{
										OFFSET 0.000000 -0.000002 14.157501
										CHANNELS 3 Xrotation Yrotation Zrotation
										End Site
										{
											OFFSET 0.000000 0.000000 0.100006
										}
									}
								}
							}
						}
					}
				}
				JOINT LeftShoulder
				{
					OFFSET 3.702209 0.515506 9.495087
					CHANNELS 3 Xrotation Yrotation Zrotation
					JOINT LeftArm
					{
						OFFSET 0.000000 -0.000002 12.453705
						CHANNELS 3 Xrotation Yrotation Zrotation
						JOINT LeftArmRoll
						{
							OFFSET 0.000000 -0.000001 6.286865
							CHANNELS 3 Xrotation Yrotation Zrotation
							JOINT LeftForeArm
							{
								OFFSET 0.000000 -0.000003 18.311401
								CHANNELS 3 Xrotation Yrotation Zrotation
								JOINT LeftForeArmRoll
								{
									OFFSET 0.000000 -0.000001 7.054825
									CHANNELS 3 Xrotation Yrotation Zrotation
									JOINT LeftHand
									{
										OFFSET 0.000000 -0.000002 14.157501
										CHANNELS 3 Xrotation Yrotation Zrotation
										End Site
										{
											OFFSET 0.000000 0.000000 0.100006
										}
									}
								}
							}
						}
					}
				}
			}
		}
	}
	JOINT RightUpLeg
	{
		OFFSET -5.666149 0.871610 -1.039032
		CHANNELS 3 Xrotation Yrotation Zrotation
		JOINT RightUpLegRoll
		{
			OFFSET 0.000000 -0.000002 16.600502
			CHANNELS 3 Xrotation Yrotation Zrotation
			JOINT RightLeg
			{
				OFFSET 0.000000 0.000003 -20.557198
				CHANNELS 3 Xrotation Yrotation Zrotation
				JOINT RightLegRoll
				{
					OFFSET 0.000000 -0.000003 20.624397
					CHANNELS 3 Xrotation Yrotation Zrotation
					JOINT RightFoot
					{
						OFFSET 0.000000 -0.000003 17.166397
						CHANNELS 3 Xrotation Yrotation Zrotation
						JOINT RightToeBase
						{
							OFFSET 0.000000 -0.000002 14.350204
							CHANNELS 3 Xrotation Yrotation Zrotation
							End Site
							{
								OFFSET 0.006081 0.801060 6.949707
							}
						}
					}
				}
			}
		}
	}
	JOINT LeftUpLeg
	{
		OFFSET 5.666149 0.871610 -1.039032
		CHANNELS 3 Xrotation Yrotation Zrotation
		JOINT LeftUpLegRoll
		{
			OFFSET 0.000000 -0.000002 16.600601
			CHANNELS 3 Xrotation Yrotation Zrotation
			JOINT LeftLeg
			{
				OFFSET 0.000000 -0.000003 20.557098
				CHANNELS 3 Xrotation Yrotation Zrotation
				JOINT LeftLegRoll
				{
					OFFSET 0.000000 -0.000004 20.815102
					CHANNELS 3 Xrotation Yrotation Zrotation
					JOINT LeftFoot
					{
						OFFSET 0.000000 -0.000002 16.975708
						CHANNELS 3 Xrotation Yrotation Zrotation
						JOINT LeftToeBase
						{
							OFFSET 0.000000 -0.000002 14.350204
							CHANNELS 3 Xrotation Yrotation Zrotation
							End Site
							{
								OFFSET -0.027260 0.801060 6.949707
							}
						}
					}
				}
			}
		}
	}
}
MOTION
Frames: 11
Frame Time: 0.041667
57.777901 -4.069443 108.566994 12.331168 -1.783159 3.492518 -1.684461 0.454745 -0.052444 0.634240 0.910455 -0.096024 2.279408 0.909239 -0.106926 21.093958 -0.326794 0.510537 -7.497983 -1.265609 0.548247 -15.757415 -52.780936 -18.492034 0.976858 -105.919200 20.284200 -0.000002 -0.000001 -0.000008 0.072844 -9.526934 -1.579437 0.000001 -0.000003 -3.124663 -5.000191 -7.998856 0.000159 -16.591125 49.349486 19.476061 5.024580 109.011841 -32.104587 0.000001 -0.000000 0.000005 -0.046464 -6.532357 1.074881 0.000003 0.000005 3.191301 -5.000218 7.998703 -0.000150 -20.335514 -173.647465 -1.498857 -179.999991 0.000005 -0.727001 165.724677 -2.652611 -1.009655 -0.000006 -0.000001 0.201725 70.691167 6.750941 2.388826 25.456948 -7.355614 0.000010 -14.657507 180.375379 5.434409 -0.000004 -0.000004 -0.686058 -7.217754 0.809166 0.411317 -0.000005 -0.000001 0.039954 67.152910 -6.853414 -2.351708 25.456952 7.355612 -0.000000 
57.815800 -4.034343 108.240997 12.413486 -1.794445 3.468066 -1.690313 0.456182 -0.050612 0.622539 0.913297 -0.092275 2.267709 0.912126 -0.103210 21.089466 -0.222625 0.511887 -7.599368 -1.354760 0.548464 -15.744783 -52.643161 -18.472527 1.616932 -105.948030 20.924717 -0.000002 -0.000001 -0.000008 0.073096 -9.554742 -1.574908 0.000001 -0.000003 -3.124233 -5.000191 -7.998853 0.000160 -16.763222 49.239981 19.689543 5.286573 108.994035 -32.644432 0.000001 -0.000001 0.000006 -0.048289 -6.785749 1.056294 0.000000 0.000005 3.190992 -5.000222 7.998706 -0.000151 -20.490400 -173.647219 -1.512462 -179.999991 0.000005 -0.725005 165.708107 -2.674711 -1.012093 -0.000006 -0.000001 0.201708 70.707225 6.750701 2.389409 25.456948 -7.355614 0.000010 -14.772024 180.384845 5.458421 -0.000005 -0.000004 -0.684054 -7.207038 0.801585 0.410815 -0.000005 -0.000001 0.040071 67.166298 -6.853001 -2.351890 25.456953 7.355613 0.000000 
57.802299 -4.046751 107.889999 12.498101 -1.805225 3.440863 -1.696365 0.456391 -0.048782 0.610413 0.913684 -0.088551 2.255579 0.912558 -0.099492 21.085632 -0.100534 0.511422 -7.706610 -1.456461 0.546720 -15.716376 -52.501478 -18.433229 2.256068 -105.979756 21.570277 -0.000002 -0.000001 -0.000006 0.073335 -9.577485 -1.569998 0.000001 -0.000005 -3.123759 -5.000192 -7.998854 0.000160 -16.937457 49.143269 19.906096 5.614930 108.962534 -33.207406 0.000000 -0.000000 0.000005 -0.049692 -6.981769 1.041418 0.000003 0.000001 3.190434 -5.000220 7.998708 -0.000153 -20.650860 -173.646331 -1.525251 -179.999991 0.000005 -0.722000 165.686865 -2.700617 -1.014751 -0.000006 -0.000000 0.201626 70.720721 6.750390 2.390338 25.456953 -7.355613 0.000010 -14.890241 180.393342 5.481025 -0.000004 -0.000004 -0.681988 -7.199916 0.795528 0.410342 -0.000005 -0.000001 0.040250 67.175293 -6.852609 -2.352350 25.456950 7.355613 -0.000000 
57.814301 -4.027920 107.550995 12.585424 -1.815867 3.410784 -1.702624 0.455306 -0.046952 0.597885 0.911484 -0.084850 2.243054 0.910401 -0.095764 21.082504 0.041108 0.508801 -7.820263 -1.571802 0.542596 -15.670833 -52.355787 -18.372403 2.894167 -106.016393 22.221595 -0.000002 -0.000001 -0.000006 0.073561 -9.594654 -1.564723 0.000000 -0.000002 -3.123239 -5.000192 -7.998854 0.000161 -17.114233 49.061474 20.126127 6.021880 108.917024 -33.799331 0.000000 -0.000001 0.000007 -0.050595 -7.111496 1.030811 0.000002 0.000005 3.189608 -5.000222 7.998708 -0.000150 -20.817457 -173.645784 -1.536269 -179.999991 0.000005 -0.718995 165.660091 -2.728398 -1.018186 -0.000006 -0.000001 0.201484 70.731547 6.750044 2.391523 25.456950 -7.355614 0.000010 -15.012363 180.402795 5.501875 -0.000004 -0.000004 -0.679837 -7.196847 0.791216 0.409895 -0.000006 -0.000001 0.040491 67.179562 -6.852159 -2.353093 25.456957 7.355614 -0.000000 
57.802700 -4.029063 107.182991 12.678993 -1.832296 3.375692 -1.710333 0.453491 -0.045663 0.582455 0.907839 -0.082219 2.227621 0.906788 -0.093090 21.090361 0.219633 0.504737 -7.948480 -1.713944 0.536607 -15.594036 -52.204652 -18.272161 3.548945 -106.057210 22.898115 -0.000002 -0.000000 -0.000008 0.073797 -9.605292 -1.558629 0.000000 -0.000005 -3.122631 -5.000192 -7.998852 0.000159 -17.304458 49.002383 20.363441 6.508985 108.848996 -34.426278 -0.000001 -0.000000 0.000008 -0.051023 -7.177331 1.024511 0.000001 -0.000002 3.188511 -5.000222 7.998703 -0.000147 -20.996364 -173.637383 -1.544572 -179.999991 0.000005 -0.716004 165.626186 -2.758993 -1.022737 -0.000006 -0.000001 0.201261 70.741936 6.749660 2.392827 25.456947 -7.355613 0.000010 -15.135296 180.417985 5.525426 -0.000004 -0.000004 -0.677365 -7.185412 0.788471 0.409013 -0.000006 -0.000001 0.041131 67.176714 -6.851706 -2.354179 25.456952 7.355613 -0.000001 
57.835701 -4.029254 106.842987 12.781237 -1.858505 3.334200 -1.720413 0.451437 -0.045315 0.562268 0.903740 -0.081440 2.207433 0.902700 -0.092262 21.117072 0.445865 0.499991 -8.096624 -1.891321 0.529257 -15.477492 -52.046458 -18.121692 4.231858 -106.104646 23.611745 -0.000002 -0.000003 -0.000006 0.074062 -9.609270 -1.551418 0.000001 -0.000005 -3.121932 -5.000192 -7.998854 0.000160 -17.516963 48.968983 20.628778 7.066351 108.752587 -35.089025 -0.000001 0.000002 0.000007 -0.051035 -7.191320 1.021901 0.000002 0.000004 3.187181 -5.000215 7.998706 -0.000151 -21.191437 -173.616715 -1.549623 -179.999991 0.000005 -0.712999 165.584604 -2.793348 -1.027692 -0.000006 -0.000000 0.200941 70.753574 6.749219 2.394446 25.456945 -7.355613 0.000010 -15.256047 180.441864 5.554907 -0.000005 -0.000004 -0.674428 -7.155967 0.786905 0.407365 -0.000005 -0.000001 0.042410 67.165601 -6.851270 -2.355683 25.456953 7.355613 -0.000000 
57.815899 -4.026444 106.468002 12.890448 -1.891926 3.287270 -1.732372 0.448963 -0.045697 0.538314 0.898830 -0.082099 2.183480 0.897781 -0.092862 21.158611 0.711674 0.494288 -8.261079 -2.097824 0.520135 -15.328562 -51.881939 -17.930317 4.934414 -106.157778 24.352602 -0.000002 -0.000001 -0.000009 0.074346 -9.607365 -1.543266 0.000001 -0.000003 -3.121131 -5.000191 -7.998856 0.000158 -17.747207 48.956532 20.916691 7.688013 108.635088 -35.784806 -0.000001 0.000002 0.000005 -0.050696 -7.159059 1.022550 -0.000002 0.000002 3.185632 -5.000220 7.998707 -0.000152 -21.399556 -173.588370 -1.551794 -179.999991 0.000005 -0.710007 165.536683 -2.830518 -1.032749 -0.000007 -0.000001 0.200527 70.765835 6.748682 2.396312 25.456943 -7.355614 0.000010 -15.375622 180.473433 5.588113 -0.000005 -0.000004 -0.671141 -7.113163 0.786429 0.405137 -0.000005 -0.000001 0.044196 67.147576 -6.850845 -2.357520 25.456957 7.355613 -0.000000 
57.865700 -4.023051 106.112000 13.005008 -1.929975 3.235893 -1.745731 0.445895 -0.046595 0.511566 0.892744 -0.083785 2.156732 0.891676 -0.094475 21.211047 1.008929 0.487375 -8.438262 -2.327368 0.508884 -15.154272 -51.711178 -17.706944 5.647512 -106.218615 25.110318 -0.000003 -0.000002 -0.000005 0.074646 -9.600302 -1.534323 0.000001 -0.000004 -3.120262 -5.000190 -7.998855 0.000161 -17.990788 48.959967 21.221750 8.368996 108.500792 -36.511951 0.000001 0.000003 0.000006 -0.050033 -7.086133 1.026061 0.000001 0.000003 3.183892 -5.000224 7.998706 -0.000153 -21.617948 -173.554123 -1.552535 -179.999991 0.000005 -0.707001 165.483886 -2.870502 -1.039871 -0.000007 -0.000000 0.200025 70.777658 6.748171 2.398406 25.456945 -7.355615 0.000010 -15.495210 180.508813 5.623664 -0.000004 -0.000004 -0.667614 -7.061619 0.786948 0.402513 -0.000005 -0.000001 0.046352 67.123998 -6.850374 -2.359493 25.456953 7.355613 0.000000 
57.862900 -4.011600 105.704994 13.123293 -1.970063 3.181012 -1.759992 0.442054 -0.047798 0.483016 0.885126 -0.086086 2.128184 0.884031 -0.096684 21.270206 1.329503 0.479071 -8.624548 -2.573862 0.495252 -14.961838 -51.534955 -17.460714 6.362865 -106.286056 25.875215 -0.000003 -0.000005 -0.000011 0.074951 -9.588851 -1.524786 0.000001 -0.000004 -3.119341 -5.000190 -7.998854 0.000159 -18.243440 48.974697 21.538652 9.102300 108.356935 -37.266595 0.000001 -0.000001 0.000001 -0.049101 -6.978121 1.032013 0.000001 0.000000 3.181988 -5.000223 7.998703 -0.000150 -21.843503 -173.518565 -1.552134 -179.999991 0.000005 -0.703996 165.427264 -2.912360 -1.046769 -0.000006 -0.000001 0.199440 70.788422 6.747612 2.400660 25.456943 -7.355614 0.000009 -15.615807 180.545122 5.659933 -0.000005 -0.000004 -0.663962 -7.005985 0.788372 0.399675 -0.000005 -0.000001 0.048743 67.096015 -6.849904 -2.361841 25.456955 7.355613 -0.000000 
57.889099 -3.984532 105.343987 13.243689 -2.009592 3.123545 -1.774662 0.437264 -0.049092 0.453643 0.875613 -0.088591 2.098816 0.874488 -0.099075 21.332250 1.665253 0.469295 -8.816328 -2.831214 0.479100 -14.758125 -51.353518 -17.200312 7.072298 -106.359890 26.637786 -0.000003 -0.000001 -0.000007 0.075253 -9.573796 -1.514827 0.000001 -0.000004 -3.118369 -5.000191 -7.998854 0.000160 -18.500549 48.995959 21.861735 9.881680 108.207668 -38.045649 0.000001 -0.000001 0.000004 -0.047943 -6.840600 1.039995 0.000001 0.000001 3.179963 -5.000217 7.998704 -0.000149 -22.073218 -173.483444 -1.551950 -179.999991 0.000005 -0.701005 165.368305 -2.955139 -1.053114 -0.000007 -0.000001 0.198776 70.797165 6.747099 2.402942 25.456945 -7.355613 0.000010 -15.738417 180.581377 5.694750 -0.000005 -0.000004 -0.660296 -6.950885 0.790611 0.396805 -0.000005 -0.000001 0.051234 67.064917 -6.849449 -2.364186 25.456957 7.355612 -0.000000 
57.785099 -3.987092 104.971985 13.364575 -2.045933 3.064397 -1.789249 0.431347 -0.050269 0.424435 0.863843 -0.090890 2.069605 0.862691 -0.101233 21.392882 2.008065 0.458097 -9.009942 -3.093331 0.460433 -14.550091 -51.167638 -16.934523 7.767741 -106.439810 27.388618 -0.000003 -0.000003 -0.000007 0.075548 -9.555841 -1.504601 0.000001 -0.000002 -3.117380 -5.000191 -7.998852 0.000156 -18.757870 49.018990 22.185537 10.698759 108.059030 -38.843702 -0.000002 0.000001 0.000006 -0.046600 -6.679172 1.049605 0.000001 0.000005 3.177831 -5.000219 7.998706 -0.000152 -22.304305 -173.452340 -1.552602 -179.999991 0.000005 -0.697999 165.308350 -2.997867 -1.060608 -0.000006 -0.000000 0.198037 70.803264 6.746595 2.405386 25.456947 -7.355614 0.000010 -15.864112 180.612755 5.727064 -0.000005 -0.000004 -0.656729 -6.900964 0.793576 0.394088 -0.000005 -0.000001 0.053689 67.032132 -6.848976 -2.366732 25.456950 7.355613 -0.000000 
